<svg xmlns="http://www.w3.org/2000/svg" xmlns:xlink="http://www.w3.org/1999/xlink" width="67" height="67" viewBox="0 0 67 67" fill="none">
<g  clip-path="url(#clip-path-mPY1hOwe7NJ86fy0ClRpa)">
<path     fill="#FFFFFF"  d="M0 59L0 8C0 3.58172 3.58172 0 8 0L59 0C63.4183 0 67 3.58172 67 8L67 59C67 63.4183 63.4183 67 59 67L8 67C3.58172 67 0 63.4183 0 59Z">
</path>
<path d="M3.05996 0L-0.290039 0L-0.290039 67L66.71 67L66.71 0L3.05996 0ZM30 54.5C30 55.8952 29.1051 57 27.71 57L8.70996 57C7.31088 57 6.40996 56.175 6.40996 54.5L6.49996 15C6.49996 13.6048 7.03497 13.5 8.70996 13.5L27.71 13.5C29.1051 13.5 30 13.825 30 15.5L30 54.5ZM59.73 44C59.73 45.3952 58.8951 46 57.5 46L37.96 46C36.5648 46 35.72 45.3952 35.72 44L35.72 15.5C35.72 14.1048 36.285 13.5 37.96 13.5L57.5 13.5C58.8951 13.5 59.73 13.825 59.73 15.5L59.73 44Z"   fill="url(#linear_fill__ZF_ziodHV_9CqjnTwYUU)" >
</path>
</g>
<defs>
<clipPath id="clip-path-mPY1hOwe7NJ86fy0ClRpa">
<path d="M0 59L0 8C0 3.58172 3.58172 0 8 0L59 0C63.4183 0 67 3.58172 67 8L67 59C67 63.4183 63.4183 67 59 67L8 67C3.58172 67 0 63.4183 0 59Z" fill="white"/>
</clipPath>
<linearGradient id="linear_fill__ZF_ziodHV_9CqjnTwYUU" x1="33.4998779296875" y1="66.9999008178711" x2="33.4998779296875" y2="0" gradientUnits="userSpaceOnUse">
<stop offset="0" stop-color="#00C6FB"  />
<stop offset="1" stop-color="#005BEA"  />
</linearGradient>
</defs>
</svg>
