<svg xmlns="http://www.w3.org/2000/svg" xmlns:xlink="http://www.w3.org/1999/xlink" width="16" height="16"
  viewBox="0 0 16 16" fill="currentColor">
  <path
    d="M12 8C14.2 8 16 9.8 16 12C16 14.2 14.2 16 12 16C9.8 16 8 14.2 8 12C8 9.8 9.8 8 12 8ZM6 9C6.6 9 7 9.4 7 10L7 14C7 14.6 6.6 15 6 15L2 15C1.4 15 1 14.6 1 14L1 10C1 9.4 1.4 9 2 9L6 9ZM12 9C10.3 9 9 10.3 9 12C9 13.7 10.3 15 12 15C13.7 15 15 13.7 15 12C15 10.3 13.7 9 12 9ZM6 10L2 10L2 14L6 14L6 10ZM11.6 10C11.9 10 12.1 10.2 12.1 10.5L12.1 11.9L13.5 11.9C13.8 11.9 14 12.1 14 12.4C14 12.7 13.8 13 13.5 13L11.6 13C11.5 13 11.4 13 11.3 12.9L11.2 12.8C11.1 12.7 11.1 12.6 11.1 12.5L11.1 10.6C11.1 10.3 11.3 10 11.6 10ZM7 1C7.6 1 8 1.4 8 2L8 7C8 7.6 7.6 8 7 8L2 8C1.4 8 1 7.6 1 7L1 2C1 1.4 1.4 1 2 1L7 1ZM7 2L2 2L2 7L7 7L7 2ZM14 1C14.6 1 15 1.4 15 2L15 6C15 6.6 14.6 7 14 7L10 7C9.4 7 9 6.6 9 6L9 2C9 1.4 9.4 1 10 1L14 1ZM14 2L10 2L10 6L14 6L14 2Z"
   >
  </path>
</svg>