<svg t="1725019966202" class="icon" viewBox="0 0 1024 1024" version="1.1" xmlns="http://www.w3.org/2000/svg" p-id="7051"
  width="200" height="200">
  <path
    d="M406.60992 173.056 621.9776 173.056l0 42.27072L406.60992 215.32672 406.60992 173.056zM759.15264 173.056l56.64768 0c29.51168 0 55.84896 11.96032 74.99776 31.10912l0 0c19.1488 19.1488 31.08864 45.4656 31.08864 74.9568l0 548.02432c0 29.51168-11.93984 55.84896-31.08864 74.97728-19.16928 19.16928-45.48608 31.10912-74.99776 31.10912L207.9744 933.23264c-28.71296 0-55.05024-11.93984-74.17856-31.10912-19.1488-19.1488-31.1296-45.4656-31.1296-74.97728L102.66624 279.12192c0-29.4912 11.9808-55.808 31.1296-74.9568 19.1488-19.1488 45.4656-31.10912 74.17856-31.10912l59.02336 0 0 42.27072-59.02336 0c-16.75264 0-32.70656 7.168-44.66688 18.3296-11.1616 11.96032-18.35008 27.91424-18.35008 45.4656l0 548.02432c0 17.53088 7.18848 33.50528 18.35008 44.66688 11.96032 11.9808 27.91424 19.16928 44.66688 19.16928l607.82592 0c17.55136 0 33.50528-7.18848 44.68736-19.16928 11.96032-11.1616 19.1488-27.11552 19.1488-44.66688L879.63648 279.12192c0-17.53088-7.18848-33.4848-18.35008-45.4656l-0.79872 0c-11.18208-11.14112-27.11552-18.3296-44.68736-18.3296l-56.64768 0L759.15264 173.056z"
    p-id="7052"></path>
  <path
    d="M689.78688 96.4608 689.78688 96.4608c23.92064 0 43.86816 19.94752 43.86816 44.66688l0 114.09408c0 23.90016-19.94752 43.86816-43.86816 43.86816l0 0c-24.73984 0-44.70784-19.98848-44.70784-43.86816L645.07904 141.14816C645.07904 116.4288 665.04704 96.4608 689.78688 96.4608L689.78688 96.4608zM645.07904 672.39936l110.87872 0 0 90.91072-110.87872 0L645.07904 672.39936zM267.79648 407.57248l110.08 0 0 90.9312-110.08 0L267.79648 407.57248zM468.02944 406.77376l110.87872 0 0 90.13248-110.87872 0L468.02944 406.77376zM645.07904 406.77376l110.87872 0 0 90.13248-110.87872 0L645.07904 406.77376zM645.87776 539.17696l110.87872 0 0 90.91072-110.87872 0L645.87776 539.17696zM468.80768 539.17696l110.8992 0 0 90.91072-110.8992 0L468.80768 539.17696zM268.5952 540.7744l110.87872 0 0 90.112-110.87872 0L268.5952 540.7744zM267.79648 673.19808l110.08 0 0 90.91072-110.08 0L267.79648 673.19808zM468.02944 672.39936l110.87872 0 0 90.91072-110.87872 0L468.02944 672.39936zM334.80704 96.4608 334.80704 96.4608c24.71936 0 44.66688 19.94752 44.66688 44.66688l0 114.09408c0 23.90016-19.94752 43.86816-44.66688 43.86816l0 0c-23.92064 0-43.86816-19.98848-43.86816-43.86816L290.93888 141.14816C290.93888 116.4288 310.8864 96.4608 334.80704 96.4608L334.80704 96.4608z"
    p-id="7053"></path>
</svg>