<svg xmlns="http://www.w3.org/2000/svg" xmlns:xlink="http://www.w3.org/1999/xlink" width="200" height="200"
  viewBox="0 0 200 200" fill="currentColor">
  <path
    d="M192 17.5391L150 17.5391L150 1.53906C150 0.439062 149.1 -0.460938 148 -0.460938L134 -0.460938C132.9 -0.460938 132 0.439062 132 1.53906L132 17.5391L68 17.5391L68 1.53906C68 0.439062 67.1 -0.460938 66 -0.460938L52 -0.460938C50.9 -0.460938 50 0.439062 50 1.53906L50 17.5391L8 17.5391C3.575 17.5391 0 21.1141 0 25.5391L0 191.539C0 195.964 3.575 199.539 8 199.539L192 199.539C196.425 199.539 200 195.964 200 191.539L200 25.5391C200 21.1141 196.425 17.5391 192 17.5391ZM182 181.539L18 181.539L18 86.5391L182 86.5391L182 181.539ZM18 69.5391L18 35.5391L50 35.5391L50 47.5391C50 48.6391 50.9 49.5391 52 49.5391L66 49.5391C67.1 49.5391 68 48.6391 68 47.5391L68 35.5391L132 35.5391L132 47.5391C132 48.6391 132.9 49.5391 134 49.5391L148 49.5391C149.1 49.5391 150 48.6391 150 47.5391L150 35.5391L182 35.5391L182 69.5391L18 69.5391Z">
  </path>
  <defs>
    <path d="M0 200L200 200L200 0L0 0L0 200Z" />
  </defs>
</svg>