<svg t="1725278487189" class="icon" viewBox="0 0 1024 1024" version="1.1" xmlns="http://www.w3.org/2000/svg" p-id="4530"
  width="200" height="200">
  <path
    d="M811.776 772.522667l-235.093333-241.792 235.093333-240.896a29.013333 29.013333 0 0 0 0-41.301334 28.928 28.928 0 0 0-41.386667 0l-235.093333 240.341334-235.946667-240.341334a28.245333 28.245333 0 0 0-40.789333 0c-10.922667 11.648-11.52 30.250667 0 41.301334l235.306667 240.298666-243.072 242.346667a29.013333 29.013333 0 0 0 0 41.301333c11.52 11.648 29.866667 11.648 41.386666 0l243.072-241.792 235.690667 241.792c11.52 11.648 29.909333 11.648 40.832 0a30.08 30.08 0 0 0 0-41.258666z"
    p-id="4531"></path>
</svg>