<svg xmlns="http://www.w3.org/2000/svg" xmlns:xlink="http://www.w3.org/1999/xlink" width="16" height="16"
  viewBox="0 0 16 16" fill="currentColor">
  <path
    d="M13.6667 7.83334C13.4 7.83334 13.1667 8.06668 13.1667 8.33334L13.1667 13C13.1667 13.1 13.1 13.1667 13 13.1667L3.00005 13.1667C2.90005 13.1667 2.83337 13.1 2.83337 13L2.83337 3.00001C2.83337 2.90001 2.90005 2.83334 3.00005 2.83334L10.3334 2.83334C10.6 2.83334 10.8334 2.60001 10.8334 2.33334C10.8334 2.06668 10.6 1.83334 10.3334 1.83334L3.00005 1.83334C2.36672 1.83334 1.83337 2.36668 1.83337 3.00001L1.83337 13C1.83337 13.6333 2.36672 14.1667 3.00005 14.1667L13 14.1667C13.6334 14.1667 14.1667 13.6333 14.1667 13L14.1667 8.33334C14.1667 8.06668 13.9334 7.83334 13.6667 7.83334Z"
    >
  </path>
  <path
    d="M14.7 2.63333C14.5 2.43333 14.2 2.43333 14 2.63333L7.89997 8.63333L6.2333 6.96667C6.0333 6.76667 5.7333 6.76667 5.5333 6.96667C5.3333 7.16667 5.3333 7.46667 5.5333 7.66667L7.56664 9.66667C7.66664 9.76667 7.79997 9.8 7.9333 9.8C8.06664 9.8 8.19997 9.76667 8.29997 9.66667L14.7333 3.33333C14.8666 3.16667 14.9 2.83333 14.7 2.63333Z"
    >
  </path>
</svg>