<svg t="1725040618903" class="icon" viewBox="0 0 1024 1024" version="1.1" xmlns="http://www.w3.org/2000/svg" p-id="5975"
  width="200" height="200">
  <path
    d="M584.817778 701.44c-10.524444 0-18.962963-6.068148-18.962963-19.531852L565.854815 414.90963c0-13.463704 8.438519-21.428148 18.962963-21.428148 10.524444 0 18.962963 7.964444 18.962963 21.428148l0 266.998519c0 13.463704-8.438519 20.48-18.962963 20.48L584.817778 701.44z"
    p-id="5976"></path>
  <path
    d="M439.182222 703.336296c-10.524444 0-18.962963-7.964444-18.962963-21.428148L420.219259 414.90963c0-13.463704 8.438519-20.48 18.962963-20.48 10.524444 0 18.962963 7.016296 18.962963 20.48l0 266.998519C458.145185 695.371852 449.706667 703.336296 439.182222 703.336296L439.182222 703.336296z"
    p-id="5977"></path>
  <path
    d="M827.543704 293.546667l-121.362963 0 0-48.545185c0-40.106667-32.426667-72.817778-72.248889-72.817778L390.637037 172.183704c-40.106667 0-72.817778 32.711111-72.817778 72.817778l0 48.545185-121.362963 0c-13.463704 0-24.272593 6.068148-24.272593 19.531852s10.808889 19.531852 24.272593 19.531852l631.087407 0c13.463704 0 24.272593-6.068148 24.272593-19.531852S841.007407 293.546667 827.543704 293.546667L827.543704 293.546667zM356.882963 235.52c0-13.368889 10.903704-24.272593 24.272593-24.272593l262.257778 0c13.274074 0 23.703704 10.619259 23.703704 24.272593l0 58.026667L356.882963 293.546667 356.882963 235.52 356.882963 235.52z"
    p-id="5978"></path>
  <path
    d="M682.002963 842.334815 342.281481 842.334815c-54.044444 0-72.912593-20.29037-72.912593-72.912593l0-354.228148c0-14.317037 6.068148-25.884444 20.385185-24.841481 12.61037 0.948148 18.678519 11.377778 18.678519 24.177778l0 364.468148c0 13.368889 10.903704 24.272593 24.272593 24.272593l358.684444 0c13.463704 0 24.367407-10.903704 24.367407-24.367407L715.757037 415.573333c0-13.368889 6.068148-24.272593 19.531852-24.272593 13.463704 0 19.531852 10.903704 19.531852 24.272593l0 353.943704C754.820741 825.837037 737.28 842.334815 682.002963 842.334815L682.002963 842.334815z"
    p-id="5979"></path>
</svg>