<svg t="1727007181879" class="icon" viewBox="0 0 1024 1024" version="1.1" fill="currentColor" xmlns="http://www.w3.org/2000/svg" p-id="5958"
  width="200" height="200">
  <path
    d="M212.555024 284.399305l612.44876 0c12.0832 0 21.87317 9.795087 21.87317 21.87317 0 12.078083-9.78997 21.87317-21.87317 21.87317l-612.44876 0c-12.0832 0-21.87317-9.795087-21.87317-21.87317C190.681854 294.194392 200.471824 284.399305 212.555024 284.399305z"
     p-id="5959"></path>
  <path
    d="M212.555024 503.131005l437.4634 0c12.078083 0 21.87317 9.795087 21.87317 21.87317s-9.795087 21.87317-21.87317 21.87317l-437.4634 0c-12.0832 0-21.87317-9.795087-21.87317-21.87317S200.471824 503.131005 212.555024 503.131005z"
     p-id="5960"></path>
  <path
    d="M212.555024 721.862705l262.47804 0c12.078083 0 21.87317 9.790994 21.87317 21.87317 0 12.078083-9.795087 21.87317-21.87317 21.87317l-262.47804 0c-12.0832 0-21.87317-9.795087-21.87317-21.87317C190.681854 731.653699 200.471824 721.862705 212.555024 721.862705z"
     p-id="5961"></path>
</svg>