<svg t="1725636199409" class="icon" viewBox="0 0 1024 1024" version="1.1" xmlns="http://www.w3.org/2000/svg" p-id="9596"
  width="200" height="200">
  <path
    d="M904.2 118.6c-36.4-36.4-84.5-56.4-135.6-56.4H258.5c-51.1 0-99.3 20-135.6 56.4s-56.4 84.5-56.4 135.6v510.1c0 51.1 20 99.3 56.4 135.6 36.4 36.4 84.5 56.4 135.6 56.4h510.1c51.1 0 99.3-20 135.6-56.4 36.4-36.4 56.4-84.5 56.4-135.6V254.2c0-51.1-20-99.3-56.4-135.6z m-7.6 645.7c0 70.6-57.4 128-128 128H258.5c-70.6 0-128-57.4-128-128V254.2c0-70.6 57.4-128 128-128h510.1c70.6 0 128 57.4 128 128v510.1z"
    p-id="9597"></path>
  <path
    d="M791.7 232.3c-12.5-12.5-32.8-12.5-45.3 0l-513 512.9c-12.5 12.5-12.5 32.8 0 45.3 6.2 6.3 14.4 9.4 22.6 9.4 8.2 0 16.4-3.1 22.6-9.4l513-512.9c12.6-12.6 12.6-32.8 0.1-45.3zM807.8 630.8c0-8.2-3.1-16.4-9.4-22.6-12.5-12.5-32.8-12.5-45.3 0L693.3 668l-59.9-59.9c-12.5-12.5-32.8-12.5-45.3 0-6.2 6.2-9.4 14.4-9.4 22.6s3.1 16.4 9.4 22.6l59.9 59.9-59.9 59.9c-6.2 6.2-9.4 14.4-9.4 22.6s3.1 16.4 9.4 22.6c6.2 6.2 14.4 9.4 22.6 9.4s16.4-3.1 22.6-9.4l59.9-59.9 59.9 59.9c6.2 6.2 14.4 9.4 22.6 9.4s16.4-3.1 22.6-9.4c6.2-6.2 9.4-14.4 9.4-22.6s-3.1-16.4-9.4-22.6l-59.9-59.9 59.9-59.9c6.4-6.2 9.5-14.3 9.5-22.5zM341.6 433.2c2.2 0 4.4-0.2 6.6-0.7 6.1-1.1 12-4.1 16.7-8.8l165.1-165c6.2-6.2 9.4-14.4 9.4-22.6s-3.1-16.4-9.4-22.6c-12.5-12.5-32.8-12.5-45.3 0L341.9 356.3l-73-73c-12.5-12.5-32.8-12.5-45.3 0-6.2 6.2-9.4 14.4-9.4 22.6s3.1 16.4 9.4 22.6l95.4 95.4c6.2 6.2 14.4 9.3 22.6 9.3z"
    p-id="9598"></path>
</svg>