<svg t="1725425916699" class="icon" viewBox="0 0 1024 1024" version="1.1" xmlns="http://www.w3.org/2000/svg" p-id="4481"
  width="200" height="200">
  <path
    d="M315.076923 118.153846m-78.769231 0a78.769231 78.769231 0 1 0 157.538462 0 78.769231 78.769231 0 1 0-157.538462 0Z"
    p-id="4482"></path>
  <path d="M315.076923 512m-78.769231 0a78.769231 78.769231 0 1 0 157.538462 0 78.769231 78.769231 0 1 0-157.538462 0Z"
    p-id="4483"></path>
  <path
    d="M315.076923 905.846154m-78.769231 0a78.769231 78.769231 0 1 0 157.538462 0 78.769231 78.769231 0 1 0-157.538462 0Z"
    p-id="4484"></path>
  <path
    d="M708.923077 118.153846m-78.769231 0a78.769231 78.769231 0 1 0 157.538462 0 78.769231 78.769231 0 1 0-157.538462 0Z"
    p-id="4485"></path>
  <path d="M708.923077 512m-78.769231 0a78.769231 78.769231 0 1 0 157.538462 0 78.769231 78.769231 0 1 0-157.538462 0Z"
    p-id="4486"></path>
  <path
    d="M708.923077 905.846154m-78.769231 0a78.769231 78.769231 0 1 0 157.538462 0 78.769231 78.769231 0 1 0-157.538462 0Z"
    p-id="4487"></path>
</svg>