<svg xmlns="http://www.w3.org/2000/svg" xmlns:xlink="http://www.w3.org/1999/xlink" width="16" height="16"
  viewBox="0 0 16 16" fill="currentColor">
  <path
    d="M2.80128 11.2747C2.83602 11.327 2.87153 11.3787 2.90784 11.4299C2.94416 11.4811 2.98127 11.5317 3.01914 11.5817C3.05702 11.6318 3.09566 11.6812 3.13506 11.7301C3.17447 11.7789 3.21463 11.8272 3.25552 11.8748C3.29641 11.9224 3.33802 11.9694 3.38036 12.0157C3.4227 12.062 3.46575 12.1077 3.5095 12.1527C3.55325 12.1977 3.59769 12.242 3.6428 12.2856C3.68792 12.3293 3.7337 12.3722 3.78014 12.4144C3.82659 12.4566 3.87367 12.4981 3.92139 12.5389C3.96913 12.5797 4.01747 12.6197 4.06642 12.659C4.11538 12.6982 4.16492 12.7367 4.21506 12.7745C4.26522 12.8122 4.31594 12.8492 4.36722 12.8854C4.4185 12.9215 4.47034 12.9569 4.52272 12.9915C4.57509 13.0261 4.628 13.0599 4.68141 13.0928C4.73484 13.1257 4.78875 13.1579 4.84316 13.1892C4.89756 13.2204 4.95245 13.2509 5.0078 13.2805C5.06316 13.3101 5.11895 13.3388 5.17517 13.3667C5.23142 13.3945 5.28808 13.4215 5.34514 13.4477C5.4022 13.4738 5.45967 13.499 5.51752 13.5234C5.57536 13.5477 5.63358 13.5712 5.69214 13.5937C5.75072 13.6163 5.80963 13.6379 5.86886 13.6587C5.92811 13.6794 5.98764 13.6992 6.04749 13.7181C6.10734 13.737 6.16747 13.755 6.22788 13.772C6.28828 13.7891 6.34894 13.8052 6.40983 13.8203C6.47074 13.8355 6.53186 13.8497 6.5932 13.863C6.65455 13.8763 6.71608 13.8887 6.7778 13.9C6.83952 13.9115 6.90141 13.9219 6.96344 13.9314C7.0255 13.9408 7.08767 13.9494 7.14997 13.9569C7.21228 13.9645 7.27469 13.9711 7.33719 13.9767C7.39972 13.9823 7.4623 13.987 7.52494 13.9907C7.58759 13.9944 7.6503 13.9972 7.71303 13.9989C7.77578 14.0007 7.83853 14.0015 7.90128 14.0013C11.2593 14.0013 13.982 11.318 13.982 8.008C13.982 5.07067 11.8366 2.622 8.99995 2.112C9.16663 2.72533 9.25263 3.36333 9.25263 4.012C9.25263 7.73067 6.44195 10.8013 2.80128 11.2747ZM1.71796 10.0053L1.82063 10.0053C5.17863 10.0053 7.90063 7.32267 7.90063 4.012C7.90063 3.176 7.72728 2.36533 7.39595 1.616L6.97528 0.666672L8.02595 0.684005C12.078 0.750005 15.3333 4.00867 15.3333 8.008C15.3333 12.054 12.006 15.3333 7.90128 15.3333C4.91863 15.3333 2.26063 13.5853 1.08796 10.9373L0.666626 9.988L1.71796 10.0053Z">
  </path>
</svg>