<svg t="1728994914061" class="icon" viewBox="0 0 1024 1024" version="1.1" xmlns="http://www.w3.org/2000/svg"
  p-id="11499" width="200" height="200" fill="currentColor">
  <path
    d="M512 1024C229.6832 1024 0 794.3168 0 512S229.6832 0 512 0s512 229.6832 512 512-229.6832 512-512 512z m0-968.0896c-251.4944 0-456.0896 204.5952-456.0896 456.0896 0 251.4944 204.5952 456.0896 456.0896 456.0896 251.4944 0 456.0896-204.5952 456.0896-456.0896 0-251.4944-204.5952-456.0896-456.0896-456.0896z"
    p-id="11500"></path>
  <path
    d="M341.9648 490.5984a23.552 23.552 0 0 1-16.7424-6.912L210.432 368.7936a23.6544 23.6544 0 1 1 33.4848-33.4848l114.8416 114.8928a23.6544 23.6544 0 0 1-16.7424 40.448z"
    p-id="11501"></path>
  <path
    d="M227.1232 490.5984a23.6032 23.6032 0 0 1-16.7424-40.448L325.2224 335.36a23.7056 23.7056 0 0 1 33.4848 33.4848L243.8656 483.6864a23.6544 23.6544 0 0 1-16.7424 6.912zM796.8256 490.5984a23.6032 23.6032 0 0 1-16.7424-6.912l-114.8416-114.8928a23.6544 23.6544 0 1 1 33.4848-33.4848l114.8416 114.8928a23.6544 23.6544 0 0 1-16.7424 40.448z"
    p-id="11502"></path>
  <path
    d="M681.984 490.5984a23.6032 23.6032 0 0 1-16.7424-40.448l114.8416-114.8416a23.7056 23.7056 0 0 1 33.4848 33.4848l-114.8416 114.8928a23.6032 23.6032 0 0 1-16.7424 6.912zM341.6064 764.5184a23.552 23.552 0 0 1-16.3328-6.5024l-42.5984-40.7552a23.6544 23.6544 0 0 1 32.768-34.2016l26.1632 25.088 68.8128-65.792a23.6544 23.6544 0 0 1 32.7168 0l68.7616 65.7408 68.8128-65.7408a23.6544 23.6544 0 0 1 32.768 0l68.864 65.792 26.2656-25.088a23.6544 23.6544 0 0 1 32.6656 34.2528l-42.5984 40.704a23.6544 23.6544 0 0 1-32.7168 0l-68.864-65.8432-68.864 65.8432a23.7056 23.7056 0 0 1-32.6656 0L426.752 692.224l-68.7616 65.792a23.6544 23.6544 0 0 1-16.384 6.5536z"
    p-id="11503"></path>
</svg>