<svg xmlns="http://www.w3.org/2000/svg" xmlns:xlink="http://www.w3.org/1999/xlink" width="16" height="16"
  viewBox="0 0 16 16" fill="currentColor">
  <path
    d="M2.8125 6.675C3.0375 6.675 3.225 6.525 3.2875 6.3125C3.9875 4.3875 5.8375 3 8 3C10.4125 3 12.4375 4.725 12.9 7L12 7L13.525 8.5125L15 7L13.9125 7C13.4375 4.1625 10.975 2 8 2C5.3875 2 3.1625 3.675 2.3375 6.0125C2.325 6.0625 2.3125 6.1125 2.3125 6.175C2.3125 6.45 2.5375 6.675 2.8125 6.675ZM13.1875 9.325C12.9625 9.325 12.775 9.475 12.7125 9.6875C12.0125 11.6125 10.1625 13 8 13C5.5875 13 3.5625 11.275 3.1 9L3.9875 9L2.475 7.4875L1 9L2.0875 9C2.5625 11.8375 5.025 14 8 14C10.6125 14 12.8375 12.325 13.6625 9.9875C13.675 9.9375 13.6875 9.8875 13.6875 9.825C13.6875 9.55 13.4625 9.325 13.1875 9.325Z"
    >
  </path>
</svg>