<svg t="1725627999508" class="icon" viewBox="0 0 1024 1024" version="1.1" xmlns="http://www.w3.org/2000/svg" p-id="6591"
  width="200" height="200" fill="currentColor">
  <path
    d="M667.648 628.224l123.392-123.392c7.168-7.168 11.264-17.408 11.776-27.648 0-10.24-4.096-20.48-11.264-27.648-7.168-7.168-17.408-11.264-27.648-11.264-10.24 0-20.48 4.096-27.648 11.264l-123.392 123.392-123.904-123.392c-7.168-7.168-17.408-11.264-27.648-11.264-10.24 0-20.48 4.096-27.648 11.264-7.168 7.168-11.264 17.408-11.776 27.648 0 10.24 4.096 20.48 11.264 27.648l123.392 123.392-123.392 123.392c-7.168 7.168-11.264 17.408-11.776 27.648 0 10.24 4.096 20.48 11.776 27.648 7.68 7.168 17.408 11.264 27.648 11.264s20.48-4.096 27.648-11.264l123.392-123.392 123.392 123.392c7.68 7.168 17.408 11.264 27.648 11.264 10.24 0 20.48-4.096 27.648-11.264 7.168-7.168 11.264-17.408 11.776-27.648 0-10.24-4.096-20.48-11.264-27.648l-123.392-123.392z"
    p-id="6592"></path>
  <path
    d="M870.4 204.8h-51.2V153.6c0-84.992-68.608-153.6-153.6-153.6H153.6C68.608 0 0 68.608 0 153.6v512c0 84.992 68.608 153.6 153.6 153.6h51.2v51.2c0 84.992 68.608 153.6 153.6 153.6h512c84.992 0 153.6-68.608 153.6-153.6V358.4c0-84.992-68.608-153.6-153.6-153.6zM187.392 379.904V716.8c0 14.336-11.776 26.112-26.112 26.112h-3.584c-45.056 0-81.408-36.352-81.408-81.408V157.696c0-45.056 36.352-81.408 81.408-81.408h503.296c45.056 0 81.408 36.352 81.408 81.408v3.584c0 14.336-11.776 26.112-26.112 26.112H379.904c-106.496 0-192.512 86.016-192.512 192.512z m769.024 469.504c0 58.88-48.128 107.008-107.008 107.008H379.392c-58.88 0-107.008-48.128-107.008-107.008V379.392c0-58.88 48.128-107.008 107.008-107.008h470.016c58.88 0 107.008 48.128 107.008 107.008v470.016z"
    p-id="6593"></path>
</svg>