<svg xmlns="http://www.w3.org/2000/svg" xmlns:xlink="http://www.w3.org/1999/xlink" width="200" height="200"
  viewBox="0 0 200 200">
  <path
    d="M197.361 125.42L181.916 112.919C182.647 108.678 183.025 104.347 183.025 100.017C183.025 95.6861 182.647 91.3556 181.916 87.1142L197.361 74.6135C199.743 72.6938 200.615 69.5686 199.554 66.756L199.342 66.1756C195.074 54.9026 188.754 44.5449 180.549 35.3926L180.124 34.9238C178.096 32.6692 174.819 31.821 171.848 32.8032L152.677 39.2544C145.603 33.7631 137.704 29.4324 129.168 26.3966L125.466 7.42229C124.9 4.49802 122.472 2.22111 119.383 1.68536L118.746 1.57375C106.461 -0.524583 93.5391 -0.524583 81.254 1.57375L80.6173 1.68536C77.5284 2.22111 75.0997 4.49802 74.5337 7.42229L70.8081 26.4859C62.343 29.5217 54.4909 33.83 47.4641 39.2991L28.1522 32.8032C25.2047 31.821 21.9036 32.6469 19.8757 34.9238L19.4513 35.3926C11.2455 44.5672 4.92609 54.9249 0.658139 66.1756L0.445921 66.756C-0.615172 69.5463 0.257282 72.6715 2.63884 74.6135L18.2723 87.2482C17.5413 91.4448 17.1876 95.7308 17.1876 99.9944C17.1876 104.28 17.5413 108.566 18.2723 112.741L2.63884 125.375C0.257282 127.295 -0.615172 130.42 0.445921 133.233L0.658139 133.813C4.92609 145.064 11.2455 155.444 19.4513 164.596L19.8757 165.065C21.9036 167.32 25.1811 168.168 28.1522 167.186L47.4641 160.69C54.4909 166.159 62.343 170.489 70.8081 173.503L74.5337 192.567C75.0997 195.491 77.5284 197.768 80.6173 198.304L81.254 198.415C87.4083 199.464 93.7042 200 100 200C106.296 200 112.615 199.464 118.746 198.415L119.383 198.304C122.472 197.768 124.9 195.491 125.466 192.567L129.168 173.592C137.704 170.556 145.603 166.248 152.677 160.734L171.848 167.186C174.795 168.168 178.096 167.342 180.124 165.065L180.549 164.596C188.754 155.422 195.074 145.064 199.342 133.813L199.554 133.233C200.615 130.487 199.743 127.362 197.361 125.42ZM165.175 89.7483C165.764 93.119 166.071 96.5791 166.071 100.039C166.071 103.499 165.764 106.959 165.175 110.33L163.618 119.281L181.233 133.545C178.568 139.372 175.196 144.863 171.188 149.975L149.305 142.631L141.901 148.39C136.266 152.765 129.994 156.203 123.203 158.614L114.219 161.806L109.998 183.459C103.372 184.173 96.6045 184.173 89.955 183.459L85.7342 161.761L76.821 158.524C70.1007 156.114 63.8521 152.676 58.2637 148.323L50.8596 142.541L28.836 149.953C24.8274 144.841 21.4791 139.327 18.791 133.523L36.5938 119.125L35.0611 110.196C34.4952 106.87 34.1886 103.432 34.1886 100.039C34.1886 96.6237 34.4716 93.2083 35.0611 89.8823L36.5938 80.9532L18.791 66.5551C21.4556 60.7288 24.8274 55.2375 28.836 50.1256L50.8596 57.5367L58.2637 51.7551C63.8521 47.4022 70.1007 43.9645 76.821 41.5537L85.7578 38.3615L89.9785 16.6639C96.6045 15.9496 103.372 15.9496 110.021 16.6639L114.242 38.3169L123.226 41.509C129.994 43.9199 136.289 47.3576 141.925 51.7328L149.329 57.4921L171.211 50.1479C175.22 55.2598 178.568 60.7735 181.256 66.5774L163.642 80.8416L165.175 89.7483ZM100.024 58.5189C77.104 58.5189 58.523 76.1092 58.523 97.8068C58.523 119.504 77.104 137.095 100.024 137.095C122.943 137.095 141.524 119.504 141.524 97.8068C141.524 76.1092 122.943 58.5189 100.024 58.5189ZM118.699 115.486C113.7 120.196 107.074 122.808 100.024 122.808C92.9732 122.808 86.3472 120.196 81.3483 115.486C76.373 110.754 73.6141 104.481 73.6141 97.8068C73.6141 91.1323 76.373 84.8597 81.3483 80.1273C86.3472 75.3948 92.9732 72.8054 100.024 72.8054C107.074 72.8054 113.7 75.3948 118.699 80.1273C123.674 84.8597 126.433 91.1323 126.433 97.8068C126.433 104.481 123.674 110.754 118.699 115.486Z">
  </path>
</svg>