<svg xmlns="http://www.w3.org/2000/svg" xmlns:xlink="http://www.w3.org/1999/xlink" width="16" height="16"
  viewBox="0 0 16 16" fill="currentColor">
  <path
    d="M7.5 2.5L7.5 1L8.5 1L8.5 2.5L7.5 2.5ZM10.317 2.987L11.067 1.688L11.933 2.188L11.183 3.487L10.317 2.987ZM8 11.5C8.05728 11.5 8.11453 11.4986 8.17173 11.4958C8.22894 11.493 8.28605 11.4888 8.34306 11.4831C8.40006 11.4775 8.45689 11.4705 8.51356 11.4621C8.57022 11.4537 8.62664 11.4439 8.68281 11.4327C8.73899 11.4216 8.79486 11.409 8.85042 11.3951C8.906 11.3812 8.96119 11.3659 9.016 11.3493C9.07081 11.3327 9.12519 11.3147 9.17911 11.2954C9.23305 11.2761 9.28647 11.2555 9.33939 11.2336C9.39231 11.2117 9.44466 11.1885 9.49644 11.164C9.54822 11.1395 9.59937 11.1137 9.64989 11.0867C9.70041 11.0597 9.75023 11.0315 9.79936 11.002C9.8485 10.9726 9.89688 10.942 9.9445 10.9101C9.99212 10.8783 10.0389 10.8453 10.085 10.8112C10.131 10.7771 10.1761 10.7419 10.2204 10.7055C10.2647 10.6692 10.308 10.6318 10.3505 10.5933C10.3929 10.5549 10.4344 10.5154 10.4749 10.4749C10.5154 10.4344 10.5549 10.3929 10.5933 10.3505C10.6318 10.308 10.6692 10.2647 10.7055 10.2204C10.7419 10.1761 10.7771 10.131 10.8112 10.085C10.8453 10.0389 10.8783 9.99212 10.9101 9.9445C10.942 9.89688 10.9726 9.8485 11.002 9.79936C11.0315 9.75023 11.0597 9.70041 11.0867 9.64989C11.1137 9.59937 11.1395 9.54822 11.164 9.49644C11.1885 9.44466 11.2117 9.39231 11.2336 9.33939C11.2555 9.28647 11.2761 9.23305 11.2954 9.17911C11.3147 9.12519 11.3327 9.07081 11.3493 9.016C11.3659 8.96119 11.3812 8.906 11.3951 8.85042C11.409 8.79486 11.4216 8.73899 11.4327 8.68281C11.4439 8.62664 11.4537 8.57022 11.4621 8.51356C11.4705 8.45689 11.4775 8.40006 11.4831 8.34306C11.4888 8.28605 11.493 8.22894 11.4958 8.17173C11.4986 8.11453 11.5 8.05728 11.5 8C11.5 7.94272 11.4986 7.88547 11.4958 7.82827C11.493 7.77106 11.4888 7.71395 11.4831 7.65694C11.4775 7.59994 11.4705 7.54311 11.4621 7.48644C11.4537 7.42978 11.4439 7.37336 11.4327 7.31719C11.4216 7.261 11.409 7.20512 11.3951 7.14956C11.3812 7.094 11.3659 7.03881 11.3493 6.984C11.3327 6.92919 11.3147 6.87481 11.2954 6.82089C11.2761 6.76695 11.2555 6.71353 11.2336 6.66061C11.2117 6.60769 11.1885 6.55534 11.164 6.50356C11.1395 6.45178 11.1137 6.40063 11.0867 6.35011C11.0597 6.29959 11.0315 6.24977 11.002 6.20064C10.9726 6.1515 10.942 6.10313 10.9101 6.0555C10.8783 6.00787 10.8453 5.96106 10.8112 5.91505C10.7771 5.86905 10.7419 5.82391 10.7055 5.77962C10.6692 5.73534 10.6318 5.69198 10.5933 5.64955C10.5549 5.60709 10.5154 5.56563 10.4749 5.52513C10.4344 5.48462 10.3929 5.44514 10.3505 5.40667C10.308 5.3682 10.2647 5.3308 10.2204 5.29447C10.1761 5.25812 10.131 5.22289 10.085 5.18877C10.0389 5.15466 9.99212 5.12169 9.9445 5.08986C9.89688 5.05803 9.8485 5.02741 9.79936 4.99795C9.75023 4.9685 9.70041 4.94028 9.64989 4.91328C9.59937 4.88627 9.54822 4.86052 9.49644 4.83603C9.44466 4.81155 9.39231 4.78834 9.33939 4.76642C9.28647 4.7445 9.23305 4.72389 9.17911 4.70459C9.12519 4.6853 9.07081 4.66734 9.016 4.6507C8.96119 4.63408 8.906 4.61881 8.85042 4.60489C8.79486 4.59097 8.73899 4.57842 8.68281 4.56725C8.62664 4.55608 8.57022 4.54628 8.51356 4.53788C8.45689 4.52948 8.40006 4.52247 8.34306 4.51686C8.28605 4.51125 8.22894 4.50703 8.17173 4.50422C8.11453 4.50141 8.05728 4.5 8 4.5C7.94272 4.5 7.88547 4.50141 7.82827 4.50422C7.77106 4.50703 7.71395 4.51125 7.65694 4.51686C7.59994 4.52247 7.54311 4.52948 7.48644 4.53788C7.42978 4.54628 7.37336 4.55608 7.31719 4.56725C7.261 4.57842 7.20512 4.59097 7.14956 4.60489C7.094 4.61881 7.03881 4.63408 6.984 4.6507C6.92919 4.66734 6.87481 4.6853 6.82089 4.70459C6.76695 4.72389 6.71353 4.7445 6.66061 4.76642C6.60769 4.78834 6.55534 4.81155 6.50356 4.83603C6.45178 4.86052 6.40063 4.88627 6.35011 4.91328C6.29959 4.94028 6.24977 4.9685 6.20064 4.99795C6.1515 5.02741 6.10313 5.05803 6.0555 5.08986C6.00787 5.12169 5.96106 5.15466 5.91505 5.18877C5.86905 5.22289 5.82391 5.25812 5.77962 5.29447C5.73534 5.3308 5.69198 5.3682 5.64955 5.40667C5.60709 5.44514 5.56563 5.48462 5.52513 5.52513C5.48462 5.56563 5.44514 5.60709 5.40667 5.64955C5.3682 5.69198 5.3308 5.73534 5.29447 5.77962C5.25812 5.82391 5.22289 5.86905 5.18877 5.91505C5.15466 5.96106 5.12169 6.00787 5.08986 6.0555C5.05803 6.10313 5.02741 6.1515 4.99795 6.20064C4.9685 6.24978 4.94028 6.29959 4.91328 6.35011C4.88627 6.40063 4.86052 6.45178 4.83603 6.50356C4.81155 6.55534 4.78834 6.60769 4.76642 6.66061C4.7445 6.71353 4.72389 6.76695 4.70459 6.82089C4.6853 6.87481 4.66734 6.92919 4.6507 6.984C4.63408 7.03881 4.61881 7.094 4.60489 7.14956C4.59097 7.20512 4.57842 7.261 4.56725 7.31719C4.55608 7.37336 4.54628 7.42978 4.53788 7.48644C4.52948 7.54311 4.52247 7.59994 4.51686 7.65694C4.51125 7.71395 4.50703 7.77106 4.50422 7.82827C4.50141 7.88547 4.5 7.94272 4.5 8C4.5 8.05728 4.50141 8.11453 4.50422 8.17173C4.50703 8.22894 4.51125 8.28605 4.51686 8.34306C4.52247 8.40006 4.52948 8.45689 4.53788 8.51356C4.54628 8.57022 4.55608 8.62664 4.56725 8.68281C4.57842 8.73899 4.59097 8.79486 4.60489 8.85042C4.61881 8.906 4.63408 8.96119 4.6507 9.016C4.66734 9.07081 4.6853 9.12519 4.70459 9.17911C4.72389 9.23305 4.7445 9.28647 4.76642 9.33939C4.78834 9.39231 4.81155 9.44466 4.83603 9.49644C4.86052 9.54822 4.88627 9.59937 4.91328 9.64989C4.94028 9.70041 4.9685 9.75023 4.99795 9.79936C5.02741 9.8485 5.05803 9.89688 5.08986 9.9445C5.12169 9.99212 5.15466 10.0389 5.18877 10.085C5.22289 10.131 5.25812 10.1761 5.29447 10.2204C5.3308 10.2647 5.3682 10.308 5.40667 10.3505C5.44514 10.3929 5.48462 10.4344 5.52513 10.4749C5.56563 10.5154 5.60709 10.5549 5.64955 10.5933C5.69198 10.6318 5.73534 10.6692 5.77962 10.7055C5.82391 10.7419 5.86905 10.7771 5.91505 10.8112C5.96106 10.8453 6.00787 10.8783 6.0555 10.9101C6.10313 10.942 6.1515 10.9726 6.20064 11.002C6.24978 11.0315 6.29959 11.0597 6.35011 11.0867C6.40063 11.1137 6.45178 11.1395 6.50356 11.164C6.55534 11.1885 6.60769 11.2117 6.66061 11.2336C6.71353 11.2555 6.76695 11.2761 6.82089 11.2954C6.87481 11.3147 6.92919 11.3327 6.984 11.3493C7.03881 11.3659 7.094 11.3812 7.14956 11.3951C7.20512 11.409 7.261 11.4216 7.31719 11.4327C7.37336 11.4439 7.42978 11.4537 7.48644 11.4621C7.54311 11.4705 7.59994 11.4775 7.65694 11.4831C7.71395 11.4888 7.77106 11.493 7.82827 11.4958C7.88547 11.4986 7.94272 11.5 8 11.5ZM8 12.5C8.07364 12.5 8.14725 12.4982 8.2208 12.4946C8.29436 12.491 8.36778 12.4855 8.44108 12.4783C8.51438 12.4711 8.58744 12.4621 8.66028 12.4513C8.73314 12.4405 8.80567 12.4279 8.87791 12.4135C8.95014 12.3992 9.02197 12.383 9.09341 12.3651C9.16484 12.3472 9.2358 12.3276 9.30628 12.3062C9.37675 12.2848 9.44666 12.2618 9.516 12.237C9.58534 12.2121 9.65403 12.1856 9.72208 12.1575C9.79012 12.1293 9.85742 12.0994 9.924 12.068C9.99058 12.0365 10.0563 12.0034 10.1213 11.9686C10.1862 11.9339 10.2503 11.8976 10.3135 11.8598C10.3766 11.8219 10.4388 11.7825 10.5001 11.7416C10.5613 11.7007 10.6215 11.6583 10.6806 11.6144C10.7398 11.5706 10.7978 11.5253 10.8548 11.4785C10.9117 11.4318 10.9674 11.3837 11.022 11.3343C11.0766 11.2848 11.1299 11.2341 11.182 11.182C11.2341 11.1299 11.2848 11.0766 11.3343 11.022C11.3837 10.9674 11.4318 10.9117 11.4785 10.8548C11.5253 10.7978 11.5706 10.7398 11.6144 10.6806C11.6583 10.6215 11.7007 10.5613 11.7416 10.5001C11.7825 10.4388 11.8219 10.3766 11.8598 10.3135C11.8976 10.2503 11.9339 10.1862 11.9686 10.1213C12.0034 10.0563 12.0365 9.99058 12.068 9.924C12.0994 9.85742 12.1293 9.79012 12.1575 9.72208C12.1856 9.65403 12.2121 9.58534 12.237 9.516C12.2618 9.44666 12.2849 9.37675 12.3062 9.30628C12.3276 9.2358 12.3472 9.16484 12.3651 9.09341C12.383 9.02197 12.3992 8.95014 12.4135 8.87791C12.4279 8.80567 12.4405 8.73314 12.4513 8.66028C12.4621 8.58744 12.4711 8.51438 12.4783 8.44108C12.4855 8.36778 12.491 8.29436 12.4946 8.22081C12.4982 8.14725 12.5 8.07364 12.5 8C12.5 7.92636 12.4982 7.85275 12.4946 7.77919C12.491 7.70564 12.4855 7.63222 12.4783 7.55892C12.4711 7.48562 12.4621 7.41256 12.4513 7.33972C12.4405 7.26686 12.4279 7.19433 12.4135 7.12209C12.3992 7.04986 12.383 6.97803 12.3651 6.90659C12.3472 6.83516 12.3276 6.7642 12.3062 6.69372C12.2848 6.62323 12.2618 6.55333 12.237 6.484C12.2121 6.41466 12.1856 6.34597 12.1575 6.27792C12.1293 6.20988 12.0994 6.14258 12.068 6.076C12.0365 6.00942 12.0034 5.94367 11.9686 5.87872C11.9339 5.81377 11.8976 5.7497 11.8598 5.68653C11.8219 5.62336 11.7825 5.56117 11.7416 5.49994C11.7007 5.4387 11.6583 5.3785 11.6144 5.31936C11.5706 5.2602 11.5253 5.20216 11.4785 5.14523C11.4318 5.08831 11.3837 5.03256 11.3343 4.97798C11.2848 4.92341 11.2341 4.87009 11.182 4.81802C11.1299 4.76594 11.0766 4.71517 11.022 4.66572C10.9674 4.61627 10.9117 4.56817 10.8548 4.52145C10.7978 4.47473 10.7398 4.42944 10.6806 4.38556C10.6215 4.3417 10.5613 4.29931 10.5001 4.25839C10.4388 4.21747 10.3766 4.17808 10.3135 4.14022C10.2503 4.10236 10.1862 4.06606 10.1213 4.03136C10.0563 3.99664 9.99058 3.96353 9.924 3.93205C9.85742 3.90056 9.79012 3.87072 9.72208 3.84255C9.65403 3.81436 9.58534 3.78786 9.516 3.76305C9.44666 3.73823 9.37675 3.71514 9.30628 3.69377C9.2358 3.67239 9.16484 3.65275 9.09341 3.63486C9.02197 3.61697 8.95014 3.60083 8.87791 3.58647C8.80567 3.57211 8.73314 3.55952 8.66028 3.5487C8.58744 3.53791 8.51438 3.52889 8.44108 3.52167C8.36778 3.51445 8.29436 3.50903 8.22081 3.50542C8.14725 3.50181 8.07364 3.5 8 3.5C7.92636 3.5 7.85275 3.50181 7.77919 3.50542C7.70564 3.50903 7.63222 3.51445 7.55892 3.52167C7.48562 3.52889 7.41256 3.53791 7.33972 3.5487C7.26686 3.55952 7.19433 3.57211 7.12209 3.58647C7.04986 3.60083 6.97803 3.61697 6.90659 3.63486C6.83516 3.65275 6.7642 3.67239 6.69372 3.69377C6.62323 3.71514 6.55333 3.73823 6.484 3.76305C6.41466 3.78786 6.34597 3.81436 6.27792 3.84255C6.20988 3.87072 6.14258 3.90056 6.076 3.93205C6.00942 3.96353 5.94367 3.99664 5.87872 4.03136C5.81377 4.06606 5.7497 4.10236 5.68653 4.14022C5.62336 4.17808 5.56117 4.21747 5.49994 4.25839C5.4387 4.29931 5.3785 4.3417 5.31936 4.38556C5.2602 4.42944 5.20216 4.47473 5.14523 4.52145C5.08831 4.56817 5.03256 4.61627 4.97798 4.66572C4.92341 4.71517 4.87009 4.76594 4.81802 4.81802C4.76594 4.87009 4.71517 4.92341 4.66572 4.97798C4.61627 5.03256 4.56817 5.08831 4.52145 5.14523C4.47473 5.20216 4.42944 5.2602 4.38556 5.31936C4.3417 5.3785 4.29931 5.4387 4.25839 5.49994C4.21747 5.56117 4.17808 5.62336 4.14022 5.68653C4.10236 5.7497 4.06606 5.81377 4.03136 5.87872C3.99664 5.94367 3.96353 6.00942 3.93205 6.076C3.90056 6.14258 3.87072 6.20988 3.84255 6.27792C3.81436 6.34597 3.78786 6.41466 3.76305 6.484C3.73823 6.55333 3.71514 6.62323 3.69377 6.69372C3.67239 6.7642 3.65275 6.83516 3.63486 6.90659C3.61697 6.97803 3.60083 7.04986 3.58647 7.12209C3.57211 7.19433 3.55952 7.26686 3.5487 7.33972C3.53791 7.41256 3.52889 7.48562 3.52167 7.55892C3.51445 7.63222 3.50903 7.70564 3.50542 7.7792C3.50181 7.85275 3.5 7.92636 3.5 8C3.5 8.07364 3.50181 8.14725 3.50542 8.2208C3.50903 8.29436 3.51445 8.36778 3.52167 8.44108C3.52889 8.51438 3.53791 8.58744 3.5487 8.66028C3.55952 8.73314 3.57211 8.80567 3.58647 8.87791C3.60083 8.95014 3.61697 9.02197 3.63486 9.09341C3.65275 9.16484 3.67239 9.2358 3.69377 9.30628C3.71514 9.37675 3.73823 9.44666 3.76305 9.516C3.78786 9.58534 3.81436 9.65403 3.84255 9.72208C3.87072 9.79012 3.90056 9.85742 3.93205 9.924C3.96353 9.99058 3.99664 10.0563 4.03136 10.1213C4.06606 10.1862 4.10236 10.2503 4.14022 10.3135C4.17808 10.3766 4.21747 10.4388 4.25839 10.5001C4.29931 10.5613 4.3417 10.6215 4.38556 10.6806C4.42944 10.7398 4.47473 10.7978 4.52145 10.8548C4.56817 10.9117 4.61627 10.9674 4.66572 11.022C4.71517 11.0766 4.76594 11.1299 4.81802 11.182C4.87009 11.2341 4.92341 11.2848 4.97798 11.3343C5.03256 11.3837 5.08831 11.4318 5.14523 11.4785C5.20216 11.5253 5.2602 11.5706 5.31936 11.6144C5.3785 11.6583 5.4387 11.7007 5.49994 11.7416C5.56117 11.7825 5.62336 11.8219 5.68653 11.8598C5.7497 11.8976 5.81377 11.9339 5.87872 11.9686C5.94367 12.0034 6.00942 12.0365 6.076 12.068C6.14258 12.0994 6.20988 12.1293 6.27792 12.1575C6.34597 12.1856 6.41466 12.2121 6.484 12.237C6.55333 12.2618 6.62323 12.2849 6.69372 12.3062C6.7642 12.3276 6.83516 12.3472 6.90659 12.3651C6.97803 12.383 7.04986 12.3992 7.12209 12.4135C7.19433 12.4279 7.26686 12.4405 7.33972 12.4513C7.41256 12.4621 7.48562 12.4711 7.55892 12.4783C7.63222 12.4855 7.70564 12.491 7.7792 12.4946C7.85275 12.4982 7.92636 12.5 8 12.5ZM13.5 7.5L15 7.5L15 8.5L13.5 8.5L13.5 7.5ZM13.812 4.067L12.513 4.817L13.013 5.683L14.312 4.933L13.812 4.067ZM4.067 2.188L4.817 3.487L5.683 2.987L4.933 1.688L4.067 2.188ZM2.987 5.683L1.688 4.933L2.188 4.067L3.487 4.817L2.987 5.683ZM7.5 13.5L7.5 15L8.5 15L8.5 13.5L7.5 13.5ZM2.5 7.5L1 7.5L1 8.5L2.5 8.5L2.5 7.5ZM1.688 11.067L2.987 10.317L3.487 11.183L2.188 11.933L1.688 11.067ZM4.817 12.513L4.067 13.8125L4.933 14.3125L5.683 13.013L4.817 12.513ZM11.067 14.3125L10.317 13.013L11.183 12.513L11.933 13.8125L11.067 14.3125ZM12.513 11.183L13.812 11.933L14.312 11.067L13.013 10.317L12.513 11.183Z"
    >
  </path>
</svg>