<svg xmlns="http://www.w3.org/2000/svg" xmlns:xlink="http://www.w3.org/1999/xlink" width="16" height="16"
  viewBox="0 0 16 16" fill="currentColor">
  <path
    d="M13.3464 5.83148C12.5285 3.59259 10.4446 2 8.00356 2C5.56251 2 3.4786 3.59074 2.66075 5.82963C1.12326 6.25 -0.00887646 7.70741 5.2043e-05 9.43704C0.0107662 11.3704 1.45718 12.9426 3.2786 13.1111C3.36253 13.1185 3.43395 13.05 3.43395 12.963L3.43395 11.8444C3.43395 11.7704 3.38038 11.7074 3.30896 11.6981C2.82682 11.6352 2.37146 11.4167 2.02147 11.0593C1.5929 10.6241 1.35718 10.0389 1.35718 9.41852C1.35718 8.9 1.51968 8.41111 1.82504 8.0037C2.12325 7.60741 2.54289 7.32037 3.00539 7.19444L3.68217 7.00926L3.93038 6.32963C4.08395 5.90741 4.29823 5.51111 4.56787 5.1537C4.83394 4.79815 5.15001 4.48704 5.50358 4.22778C6.2375 3.69259 7.10178 3.40926 8.00356 3.40926C8.90534 3.40926 9.76962 3.69259 10.5035 4.22963C10.8589 4.48889 11.1732 4.8 11.4392 5.15556C11.7089 5.51296 11.9232 5.90926 12.0767 6.33148L12.3232 7.00926L12.9982 7.19444C13.966 7.46111 14.6428 8.37407 14.6428 9.41667C14.6428 10.0389 14.4071 10.6222 13.9785 11.0574C13.6303 11.413 13.1767 11.6333 12.6946 11.6963C12.6232 11.7056 12.5714 11.7685 12.5714 11.8426L12.5714 12.963C12.5714 13.05 12.6446 13.1185 12.7285 13.1111C14.5446 12.9407 15.9874 11.3704 15.9999 9.44074C16.0106 7.71111 14.8803 6.2537 13.3464 5.83148ZM5.58751 11.1556C5.61965 10.5352 5.86786 9.95741 6.29286 9.51481C6.74643 9.04259 7.36428 8.77778 8.00713 8.77778C8.65356 8.77778 9.26248 9.03889 9.7214 9.51481C9.7464 9.54074 9.76962 9.56667 9.79462 9.59444L9.34819 9.95741C9.25355 10.0333 9.28569 10.1889 9.40176 10.2185L11.1553 10.663C11.2446 10.6852 11.3321 10.6148 11.3321 10.5204L11.341 8.64444C11.341 8.52037 11.2053 8.45 11.1107 8.52778L10.6964 8.86481C10.0428 8.08704 9.08212 7.59444 8.00892 7.59444C6.09108 7.59444 4.5268 9.17037 4.44823 11.1444C4.44466 11.2278 4.50895 11.2981 4.59109 11.2981L5.44644 11.2981C5.52144 11.2963 5.58394 11.2352 5.58751 11.1556ZM11.4107 11.2963L10.5553 11.2963C10.4803 11.2963 10.4178 11.3574 10.4125 11.437C10.3803 12.0574 10.1321 12.6352 9.70712 13.0778C9.25355 13.55 8.6357 13.8148 7.99285 13.8148C7.34642 13.8148 6.7375 13.5537 6.27857 13.0778C6.25357 13.0519 6.23036 13.0259 6.20536 12.9981L6.65179 12.6352C6.74643 12.5593 6.71429 12.4037 6.59822 12.3741L4.84466 11.9296C4.75537 11.9074 4.66787 11.9778 4.66787 12.0722L4.66073 13.95C4.66073 14.0741 4.79644 14.1444 4.89109 14.0667L5.30537 13.7296C5.95893 14.5074 6.91964 15 7.99285 15C9.91069 15 11.475 13.4241 11.5535 11.45C11.5571 11.3667 11.4928 11.2963 11.4107 11.2963Z">
  </path>
</svg>