<svg xmlns="http://www.w3.org/2000/svg" xmlns:xlink="http://www.w3.org/1999/xlink" width="200" height="200"
  viewBox="0 0 200 200">
  <path
    d="M142 46.1485L142 136.731C142 151.347 133.224 179 100 179C66.7761 179 58 151.347 58 136.731L58 52.1943C58 51.4233 58.1045 44.5362 61.6393 37.4214C66.5846 27.4851 75.9527 22 88.0025 22C100.07 22 109.438 27.4851 114.366 37.4214C117.883 44.5187 118.005 51.4233 118.005 52.1943L118.005 130.703C118.005 137.993 113.216 148.823 100 148.823C86.801 148.823 81.995 137.993 81.9776 130.703L81.9776 76.3603C81.9776 73.0307 84.6766 70.3144 87.9851 70.3144C91.3109 70.3144 93.9925 73.0132 93.9925 76.3603L93.9925 130.721C94.0796 133.437 95.1592 136.766 100 136.766C104.841 136.766 105.938 133.437 106.007 130.668L106.007 52.1943C105.973 49.1977 104.945 34.0742 88.0025 34.0742C80.393 34.0742 75.291 36.9307 72.3657 42.8188C70.102 47.3752 69.9975 52.1418 69.9975 52.1943L69.9975 136.749C70.0149 139.816 71.0597 166.943 100 166.943C129.672 166.943 130.003 137.976 130.003 136.749L130.003 46.1485C130.003 42.8188 132.684 40.1026 136.01 40.1026C139.336 40.1026 142 42.8188 142 46.1485Z">
  </path>
</svg>