<svg t="1725010279412" class="icon" viewBox="0 0 1024 1024" version="1.1" xmlns="http://www.w3.org/2000/svg" p-id="1541"
  width="200" height="200">
  <path
    d="M961.8432 8.2944A101.5808 101.5808 0 0 0 921.6 0H102.4A102.7072 102.7072 0 0 0 0 102.4v819.2a101.5808 101.5808 0 0 0 8.2944 40.2432A102.8096 102.8096 0 0 0 102.4 1024h243.2a38.4 38.4 0 0 0 0-76.8H128a51.2 51.2 0 0 1-51.2-51.2V128a51.2 51.2 0 0 1 51.2-51.2h768a51.2 51.2 0 0 1 51.2 51.2v217.6a38.4 38.4 0 0 0 76.8 0V102.4a102.8096 102.8096 0 0 0-62.1568-94.1056z"
    p-id="1542"></path>
  <path
    d="M153.6 710.4m38.4 0l76.8 0q38.4 0 38.4 38.4l0 0q0 38.4-38.4 38.4l-76.8 0q-38.4 0-38.4-38.4l0 0q0-38.4 38.4-38.4Z"
    p-id="1543"></path>
  <path
    d="M153.6 473.6m38.4 0l128 0q38.4 0 38.4 38.4l0 0q0 38.4-38.4 38.4l-128 0q-38.4 0-38.4-38.4l0 0q0-38.4 38.4-38.4Z"
    p-id="1544"></path>
  <path
    d="M153.6 236.8m38.4 0l537.6 0q38.4 0 38.4 38.4l0 0q0 38.4-38.4 38.4l-537.6 0q-38.4 0-38.4-38.4l0 0q0-38.4 38.4-38.4Z"
    p-id="1545"></path>
  <path
    d="M704 384a320 320 0 1 0 320 320A320 320 0 0 0 704 384z m0 563.2a243.2 243.2 0 1 1 243.2-243.2 243.2 243.2 0 0 1-243.2 243.2z m166.4-192a38.5024 38.5024 0 0 1-38.4 38.4h-179.2a38.5024 38.5024 0 0 1-38.4-38.4v-179.2a38.4 38.4 0 0 1 76.8 0V716.8h140.8a38.5024 38.5024 0 0 1 38.4 38.4z"
    p-id="1546"></path>
</svg>